<svg width="22" height="22" viewBox="0 0 22 22" fill="none" xmlns="http://www.w3.org/2000/svg">
<path d="M13.9829 21.8652H7.98291C2.55291 21.8652 0.23291 19.5452 0.23291 14.1152V8.11523C0.23291 2.68523 2.55291 0.365234 7.98291 0.365234H13.9829C19.4129 0.365234 21.7329 2.68523 21.7329 8.11523V14.1152C21.7329 19.5452 19.4129 21.8652 13.9829 21.8652ZM7.98291 1.86523C3.37291 1.86523 1.73291 3.50523 1.73291 8.11523V14.1152C1.73291 18.7252 3.37291 20.3652 7.98291 20.3652H13.9829C18.5929 20.3652 20.2329 18.7252 20.2329 14.1152V8.11523C20.2329 3.50523 18.5929 1.86523 13.9829 1.86523H7.98291Z" fill="white"/>
<path d="M6.31302 14.3552C6.15302 14.3552 5.99302 14.3052 5.85302 14.1952C5.52302 13.9452 5.46302 13.4752 5.71302 13.1452L8.09302 10.0552C8.38302 9.68524 8.79302 9.44524 9.26302 9.38524C9.72302 9.32524 10.193 9.45524 10.563 9.74524L12.393 11.1852C12.463 11.2452 12.533 11.2452 12.583 11.2352C12.623 11.2352 12.693 11.2152 12.753 11.1352L15.063 8.15524C15.313 7.82524 15.793 7.76524 16.113 8.02524C16.443 8.27524 16.503 8.74524 16.243 9.07524L13.933 12.0552C13.643 12.4252 13.233 12.6652 12.763 12.7152C12.293 12.7752 11.833 12.6452 11.463 12.3552L9.63302 10.9152C9.56302 10.8552 9.48302 10.8552 9.44302 10.8652C9.40302 10.8652 9.33302 10.8852 9.27302 10.9652L6.89302 14.0552C6.76302 14.2552 6.54302 14.3552 6.31302 14.3552Z" fill="white"/>
</svg>
