<svg
              xmlns="http://www.w3.org/2000/svg"
              width="42"
              height="42"
              viewBox="0 0 42 42"
            >
              <g
                id="Group_160702"
                data-name="Group 160702"
                transform="translate(-1789 -56)"
              >
                <g
                  id="Ellipse_1324"
                  data-name="Ellipse 1324"
                  transform="translate(1789 56)"
                  fill="none"
                  stroke="#95aec7"
                  strokeWidth="2"
                >
                  <circle cx="21" cy="21" r="21" stroke="none" />
                  <circle cx="21" cy="21" r="20" fill="none" />
                </g>
                <path
                  id="Subtraction_33"
                  data-name="Subtraction 33"
                  d="M-5453-14367a12.917,12.917,0,0,1-9.193-3.807A12.916,12.916,0,0,1-5466-14380a12.913,12.913,0,0,1,3.808-9.192A12.915,12.915,0,0,1-5453-14393c.279,0,.568.01.86.028-4.167,2.155-6.86,7.246-6.86,12.973s2.69,10.815,6.854,12.974C-5452.441-14367.008-5452.728-14367-5453-14367Z"
                  transform="translate(7263 14457)"
                  fill="#95aec7"
                />
              </g>
            </svg>