<svg width="25" height="25" viewBox="0 0 25 25" fill="none" xmlns="http://www.w3.org/2000/svg">
<path d="M22.9829 9.13523V4.59523C22.9829 3.18523 22.3429 2.61523 20.7529 2.61523H16.7129C15.1229 2.61523 14.4829 3.18523 14.4829 4.59523V9.12523C14.4829 10.5452 15.1229 11.1052 16.7129 11.1052H20.7529C22.3429 11.1152 22.9829 10.5452 22.9829 9.13523Z" fill="white"/>
<path d="M22.9829 20.3852V16.3452C22.9829 14.7552 22.3429 14.1152 20.7529 14.1152H16.7129C15.1229 14.1152 14.4829 14.7552 14.4829 16.3452V20.3852C14.4829 21.9752 15.1229 22.6152 16.7129 22.6152H20.7529C22.3429 22.6152 22.9829 21.9752 22.9829 20.3852Z" fill="white"/>
<path d="M11.4829 9.13523V4.59523C11.4829 3.18523 10.8429 2.61523 9.25291 2.61523H5.21291C3.62291 2.61523 2.98291 3.18523 2.98291 4.59523V9.12523C2.98291 10.5452 3.62291 11.1052 5.21291 11.1052H9.25291C10.8429 11.1152 11.4829 10.5452 11.4829 9.13523Z" fill="white"/>
<path d="M11.4829 20.3852V16.3452C11.4829 14.7552 10.8429 14.1152 9.25291 14.1152H5.21291C3.62291 14.1152 2.98291 14.7552 2.98291 16.3452V20.3852C2.98291 21.9752 3.62291 22.6152 5.21291 22.6152H9.25291C10.8429 22.6152 11.4829 21.9752 11.4829 20.3852Z" fill="white"/>
</svg>
