<svg width="30" height="20" viewBox="0 0 30 20" fill="none" xmlns="http://www.w3.org/2000/svg">
<path d="M15.0002 0.356201C8.571 0.356201 3.08046 4.35516 0.855957 10C3.08046 15.6448 8.571 19.6438 15.0002 19.6438C21.4294 19.6438 26.9199 15.6448 29.1444 10C26.9199 4.35516 21.4294 0.356201 15.0002 0.356201ZM15.0002 16.4292C11.4513 16.4292 8.571 13.5489 8.571 10C8.571 6.45108 11.4513 3.5708 15.0002 3.5708C18.5491 3.5708 21.4294 6.45108 21.4294 10C21.4294 13.5489 18.5491 16.4292 15.0002 16.4292ZM15.0002 6.14248C12.8657 6.14248 11.1427 7.86551 11.1427 10C11.1427 12.1345 12.8657 13.8575 15.0002 13.8575C17.1347 13.8575 18.8577 12.1345 18.8577 10C18.8577 7.86551 17.1347 6.14248 15.0002 6.14248Z" fill="white"/>
</svg>
