<svg width="41" height="41" viewBox="0 0 41 41" fill="none" xmlns="http://www.w3.org/2000/svg">
<rect x="0.753418" y="0.904785" width="40" height="40" rx="10" fill="#317FF3"/>
<path d="M30.7534 25.0948C30.7534 28.7348 28.5834 30.9048 24.9434 30.9048H23.7534C23.2034 30.9048 22.7534 30.4548 22.7534 29.9048V24.1348C22.7534 23.8648 22.9734 23.6348 23.2434 23.6348L25.0034 23.6048C25.1434 23.5948 25.2634 23.4948 25.2934 23.3548L25.6434 21.4448C25.6734 21.2648 25.5334 21.0948 25.3434 21.0948L23.2134 21.1248C22.9334 21.1248 22.7134 20.9048 22.7034 20.6348L22.6634 18.1848C22.6634 18.0248 22.7934 17.8848 22.9634 17.8848L25.3634 17.8448C25.5334 17.8448 25.6634 17.7148 25.6634 17.5448L25.6234 15.1448C25.6234 14.9748 25.4934 14.8448 25.3234 14.8448L22.6234 14.8848C20.9634 14.9148 19.6434 16.2748 19.6734 17.9348L19.7234 20.6848C19.7334 20.9648 19.5134 21.1848 19.2334 21.1948L18.0334 21.2148C17.8634 21.2148 17.7334 21.3448 17.7334 21.5148L17.7634 23.4148C17.7634 23.5848 17.8934 23.7148 18.0634 23.7148L19.2634 23.6948C19.5434 23.6948 19.7634 23.9148 19.7734 24.1848L19.8634 29.8848C19.8734 30.4448 19.4234 30.9048 18.8634 30.9048H16.5634C12.9234 30.9048 10.7534 28.7348 10.7534 25.0848V16.7148C10.7534 13.0748 12.9234 10.9048 16.5634 10.9048H24.9434C28.5834 10.9048 30.7534 13.0748 30.7534 16.7148V25.0948V25.0948Z" fill="white"/>
</svg>
