<svg width="26" height="26" viewBox="0 0 26 26" fill="none" xmlns="http://www.w3.org/2000/svg">
<path d="M3.30973 0.540771H22.6908C23.4251 0.540771 24.1293 0.832475 24.6485 1.35171C25.1678 1.87095 25.4595 2.57518 25.4595 3.30949V22.6905C25.4595 23.4248 25.1678 24.1291 24.6485 24.6483C24.1293 25.1675 23.4251 25.4592 22.6908 25.4592H3.30973C2.57542 25.4592 1.87119 25.1675 1.35195 24.6483C0.832719 24.1291 0.541016 23.4248 0.541016 22.6905V3.30949C0.541016 2.57518 0.832719 1.87095 1.35195 1.35171C1.87119 0.832475 2.57542 0.540771 3.30973 0.540771ZM13.0002 19.9218L13.997 19.0081C17.5686 15.7687 19.922 13.6368 19.922 11.0204C19.922 8.88845 18.247 7.21338 16.1151 7.21338C14.9107 7.21338 13.7616 7.78097 13.0002 8.66696C12.6145 8.21686 12.137 7.85434 11.5999 7.60366C11.0627 7.35298 10.4782 7.21992 9.88544 7.21338C7.75352 7.21338 6.07845 8.88845 6.07845 11.0204C6.07845 13.6368 8.43186 15.7687 12.0035 19.0081L13.0002 19.9218Z" fill="white"/>
</svg>
