<svg width="16" height="14" viewBox="0 0 16 14" fill="none" xmlns="http://www.w3.org/2000/svg">
<path d="M1.4875 8.38755L7.13438 13.6594C7.36875 13.8782 7.67812 14 8 14C8.32187 14 8.63125 13.8782 8.86563 13.6594L14.5125 8.38755C15.4625 7.50317 16 6.26255 16 4.96567V4.78442C16 2.60005 14.4219 0.737545 12.2688 0.37817C10.8438 0.14067 9.39375 0.606295 8.375 1.62505L8 2.00005L7.625 1.62505C6.60625 0.606295 5.15625 0.14067 3.73125 0.37817C1.57812 0.737545 0 2.60005 0 4.78442V4.96567C0 6.26255 0.5375 7.50317 1.4875 8.38755Z" fill="white"/>
</svg>
