<svg width="60" height="60" viewBox="0 0 60 60" fill="none" xmlns="http://www.w3.org/2000/svg">
<path d="M22.4 52.0003C22.267 52.0097 22.133 52.0097 22 52.0003H10.0001C9.28535 52.0003 8.62511 51.619 8.26797 51.0003C7.91083 50.3815 7.91083 49.619 8.26797 49.0003C8.62511 48.3816 9.28537 48.0003 10.0001 48.0003H20.8598C20.2888 46.0516 19.9995 44.0312 20 42.0003H10C9.2853 42.0003 8.62507 41.6191 8.26793 41.0003C7.91079 40.3816 7.91079 39.6191 8.26793 39.0004C8.62507 38.3816 9.28533 38.0004 10 38.0004H20C20.1263 37.991 20.2535 37.991 20.3799 38.0004C20.7727 35.9057 21.4808 33.883 22.4799 32.0004C22.3205 32.0196 22.1593 32.0196 22 32.0004H10C9.2853 32.0004 8.62507 31.6192 8.26793 31.0004C7.91079 30.3817 7.91079 29.6192 8.26793 29.0004C8.62507 28.3817 9.28533 28.0004 10 28.0004H22C22.4397 28.0098 22.8642 28.1634 23.2075 28.4384C23.5512 28.7129 23.7945 29.0933 23.8999 29.5205C26.1655 26.2545 29.2668 23.6571 32.8797 22.0004H29.9999C29.2851 22.0004 28.6249 21.6192 28.2678 21.0004C27.9106 20.3817 27.9106 19.6192 28.2678 19.0005C28.6249 18.3817 29.2852 18.0005 29.9999 18.0005H33.9998C34.5302 18.0005 35.0391 18.2112 35.4141 18.5862C35.7891 18.9612 35.9998 19.4701 35.9998 20.0005C35.9967 20.325 35.907 20.6424 35.74 20.9205C37.7704 20.3089 39.8793 19.9987 41.9997 20.0005C42.6796 20.0005 43.34 20.0005 43.9997 20.1005V1.99999C43.9997 1.46964 43.789 0.960703 43.414 0.585711C43.039 0.210719 42.5301 0 41.9997 0H1.99999C1.46964 0 0.960703 0.210719 0.585711 0.585711C0.210719 0.960703 0 1.46964 0 1.99999V57.9996C0 58.53 0.210719 59.0389 0.585711 59.4139C0.960703 59.7889 1.46964 59.9996 1.99999 59.9996H29.3998C26.4476 57.9451 24.0441 55.1983 22.3999 51.9997L22.4 52.0003ZM30 8.00055H33.9999C34.7147 8.00055 35.3749 8.38179 35.732 9.00054C36.0892 9.61929 36.0892 10.3818 35.732 11.0005C35.3749 11.6193 34.7146 12.0005 33.9999 12.0005H30C29.2852 12.0005 28.625 11.6193 28.2678 11.0005C27.9107 10.3818 27.9107 9.61928 28.2678 9.00054C28.625 8.3818 29.2852 8.00055 30 8.00055ZM10.0001 8.00055H22C22.7147 8.00055 23.375 8.38179 23.7321 9.00054C24.0892 9.61929 24.0892 10.3818 23.7321 11.0005C23.375 11.6193 22.7147 12.0005 22 12.0005H10.0001C9.28535 12.0005 8.62511 11.6193 8.26797 11.0005C7.91083 10.3818 7.91083 9.61928 8.26797 9.00054C8.62511 8.3818 9.28537 8.00055 10.0001 8.00055ZM10.0001 18.0005H22C22.7147 18.0005 23.375 18.3817 23.7321 19.0005C24.0892 19.6192 24.0892 20.3817 23.7321 21.0005C23.375 21.6192 22.7147 22.0005 22 22.0005H10.0001C9.28535 22.0005 8.62511 21.6192 8.26797 21.0005C7.91083 20.3817 7.91083 19.6192 8.26797 19.0005C8.62511 18.3817 9.28537 18.0005 10.0001 18.0005ZM41.9999 24.0005C37.2259 24.0005 32.6477 25.8969 29.272 29.2723C25.8966 32.6482 24.0001 37.2263 24.0001 42.0002C24.0001 46.7741 25.8966 51.3524 29.272 54.7281C32.6478 58.1036 37.226 60 41.9999 60C46.7738 60 51.3521 58.1036 54.7278 54.7281C58.1032 51.3523 59.9997 46.7741 59.9997 42.0002C59.9997 37.2263 58.1032 32.6481 54.7278 29.2723C51.3519 25.8969 46.7738 24.0005 41.9999 24.0005ZM47.0998 49.6597C46.778 49.8856 46.3932 50.0044 45.9999 49.9999C45.3307 49.9963 44.7079 49.6588 44.3401 49.0999L40.3401 43.0999C40.1214 42.7745 40.0031 42.3919 39.9999 42V36C39.9999 35.2853 40.3812 34.625 40.9999 34.2679C41.6187 33.9107 42.3812 33.9107 42.9999 34.2679C43.6187 34.625 43.9999 35.2853 43.9999 36V41.4L47.6597 46.8999C47.9494 47.341 48.053 47.8785 47.9481 48.395C47.8431 48.912 47.5382 49.3669 47.0998 49.6597Z" fill="#3080FE"/>
</svg>
