<svg width="18" height="14" viewBox="0 0 18 14" fill="none" xmlns="http://www.w3.org/2000/svg">
<path d="M8.50028 12C9.05341 12 9.50028 11.5532 9.50028 11C9.50028 10.4469 9.05341 10 8.50028 10H5.00028C4.44716 10 4.00028 9.55315 4.00028 9.00002V5.00002H5.00028C5.40341 5.00002 5.76903 4.75627 5.92528 4.38127C6.08153 4.00627 5.99403 3.57815 5.70966 3.29065L3.70966 1.29065C3.31903 0.900024 2.68466 0.900024 2.29403 1.29065L0.294032 3.29065C0.0065321 3.57815 -0.0778429 4.00627 0.0784071 4.38127C0.234657 4.75627 0.597157 5.00002 1.00341 5.00002H2.00341V9.00002C2.00341 10.6563 3.34716 12 5.00341 12H8.50028ZM9.50028 2.00002C8.94716 2.00002 8.50028 2.4469 8.50028 3.00002C8.50028 3.55315 8.94716 4.00002 9.50028 4.00002H13.0003C13.5534 4.00002 14.0003 4.4469 14.0003 5.00002V9.00002H13.0003C12.5972 9.00002 12.2315 9.24377 12.0753 9.61877C11.919 9.99377 12.0065 10.4219 12.2909 10.7094L14.2909 12.7094C14.6815 13.1 15.3159 13.1 15.7065 12.7094L17.7065 10.7094C17.994 10.4219 18.0784 9.99377 17.9222 9.61877C17.7659 9.24377 17.4034 9.00002 16.9972 9.00002H15.9972V5.00002C15.9972 3.34377 14.6534 2.00002 12.9972 2.00002H9.50028Z" fill="white"/>
</svg>
