<svg width="53" height="60" viewBox="0 0 53 60" fill="none" xmlns="http://www.w3.org/2000/svg">
<path fill-rule="evenodd" clip-rule="evenodd" d="M8.69781 17.8022C8.69781 7.97032 16.6681 0 26.5 0C36.3319 0 44.3022 7.97032 44.3022 17.8022V32.3077C44.3022 42.1396 36.3319 50.1099 26.5 50.1099C16.6681 50.1099 8.69781 42.1396 8.69781 32.3077V17.8022ZM24.522 20.1099C24.522 19.1995 25.26 18.4615 26.1703 18.4615C27.0807 18.4615 27.8187 19.1995 27.8187 20.1099V29.3407C27.8187 30.251 27.0807 30.989 26.1703 30.989C25.26 30.989 24.522 30.251 24.522 29.3407V20.1099ZM32.7638 20.4396C31.8534 20.4396 31.1154 21.1776 31.1154 22.0879V27.3626C31.1154 28.273 31.8534 29.011 32.7638 29.011C33.6741 29.011 34.4121 28.273 34.4121 27.3626V22.0879C34.4121 21.1776 33.6741 20.4396 32.7638 20.4396ZM17.9286 22.0879C17.9286 21.1776 18.6666 20.4396 19.5769 20.4396C20.4873 20.4396 21.2253 21.1776 21.2253 22.0879V27.3626C21.2253 28.273 20.4873 29.011 19.5769 29.011C18.6666 29.011 17.9286 28.273 17.9286 27.3626V22.0879Z" fill="#3080FE"/>
<path d="M52.1106 36.5938C52.2251 35.3226 51.1796 34.2857 49.9033 34.2857C48.6269 34.2857 47.6054 35.3236 47.4658 36.5923C46.9439 41.3379 44.8225 45.7921 41.4145 49.2002C37.4589 53.1557 32.094 55.3779 26.5 55.3779C20.906 55.3779 15.5411 53.1557 11.5856 49.2002C8.1775 45.7921 6.05616 41.3379 5.53421 36.5923C5.39467 35.3236 4.3731 34.2857 3.09675 34.2857C1.82041 34.2857 0.774935 35.3226 0.889454 36.5938C1.4276 42.5674 4.04197 48.1932 8.31727 52.4685C13.1396 57.2908 19.6802 60 26.5 60C33.3199 60 39.8604 57.2908 44.6828 52.4685C48.9581 48.1932 51.5724 42.5674 52.1106 36.5938Z" fill="#3080FE"/>
</svg>
