<svg width="41" height="41" viewBox="0 0 41 41" fill="none" xmlns="http://www.w3.org/2000/svg">
<rect x="0.753418" y="0.904785" width="40" height="40" rx="10" fill="#14CC26"/>
<path d="M20.7534 10.9048C15.2334 10.9048 10.7534 15.3848 10.7534 20.9048C10.7534 26.4248 15.2334 30.9048 20.7534 30.9048C26.2734 30.9048 30.7534 26.4248 30.7534 20.9048C30.7534 15.3848 26.2734 10.9048 20.7534 10.9048ZM24.1734 25.4848C24.0234 25.6948 23.7934 25.7948 23.5634 25.7948C23.4134 25.7948 23.2634 25.7448 23.1234 25.6548C21.5834 24.5548 19.6134 24.3148 17.8534 25.0048C17.4734 25.1548 17.0334 24.9648 16.8834 24.5848C16.7334 24.1948 16.9234 23.7648 17.3034 23.6148C19.5434 22.7248 22.0434 23.0348 23.9934 24.4348C24.3434 24.6848 24.4134 25.1548 24.1734 25.4848ZM25.2734 22.6948C25.1234 22.9048 24.8934 23.0048 24.6634 23.0048C24.5134 23.0048 24.3634 22.9548 24.2234 22.8648C22.1034 21.3448 19.3934 21.0148 16.9634 21.9748C16.5834 22.1248 16.1434 21.9348 15.9934 21.5548C15.8434 21.1648 16.0334 20.7348 16.4134 20.5848C19.3134 19.4348 22.5634 19.8348 25.0934 21.6548C25.4334 21.8948 25.5134 22.3648 25.2734 22.6948ZM26.8434 20.0148C26.6934 20.2248 26.4634 20.3248 26.2334 20.3248C26.0834 20.3248 25.9334 20.2748 25.7934 20.1848C22.8134 18.0448 18.9934 17.5748 15.5934 18.9348C15.2034 19.0848 14.7734 18.8948 14.6234 18.5148C14.4734 18.1348 14.6634 17.6948 15.0434 17.5448C18.9234 16.0048 23.2734 16.5348 26.6734 18.9748C27.0134 19.2048 27.0934 19.6748 26.8434 20.0148Z" fill="white"/>
</svg>
