<svg width="24" height="22" viewBox="0 0 24 22" fill="none" xmlns="http://www.w3.org/2000/svg">
<path d="M24 9.90925C24 9.33059 23.7701 8.77564 23.361 8.36647C22.9518 7.9573 22.3968 7.72743 21.8182 7.72743H14.9236L15.9709 2.74197C15.9927 2.63288 16.0036 2.51288 16.0036 2.39288C16.0036 1.94561 15.8182 1.53106 15.5236 1.23652L14.3673 0.0910645L7.18909 7.26925C6.78545 7.67288 6.54545 8.21834 6.54545 8.81834V19.7274C6.54545 20.3061 6.77532 20.861 7.18449 21.2702C7.59366 21.6794 8.14862 21.9092 8.72727 21.9092H18.5455C19.4509 21.9092 20.2255 21.3638 20.5527 20.5783L23.8473 12.8874C23.9455 12.6365 24 12.3747 24 12.0911V9.90925ZM0 21.9092H4.36364V8.81834H0V21.9092Z" fill="white"/>
</svg>
