<svg width="18" height="26" viewBox="0 0 18 26" fill="none" xmlns="http://www.w3.org/2000/svg">
<path d="M4.97023 0.58334C5.01975 0.414884 5.1225 0.267002 5.26311 0.16184C5.40371 0.0566786 5.5746 -0.000102672 5.75019 1.39371e-07H12.2498C12.3785 9.78089e-05 12.5053 0.0307529 12.6198 0.0894418C12.7343 0.148131 12.8332 0.233175 12.9084 0.337574C12.9836 0.441973 13.0329 0.56274 13.0523 0.689935C13.0717 0.817129 13.0607 0.947113 13.02 1.06919L10.1277 9.74942H16.3121C16.4642 9.74931 16.6133 9.79193 16.7424 9.87242C16.8715 9.95291 16.9755 10.068 17.0423 10.2047C17.1092 10.3413 17.1364 10.494 17.1208 10.6454C17.1051 10.7967 17.0473 10.9406 16.9539 11.0607L5.57957 25.6848C5.46305 25.8354 5.29737 25.9402 5.11144 25.9811C4.92551 26.0219 4.73114 25.9962 4.56225 25.9084C4.39336 25.8205 4.26067 25.6762 4.18734 25.5005C4.11401 25.3248 4.1047 25.129 4.16103 24.9471L7.08748 15.4366H1.68793C1.56162 15.4367 1.43703 15.4073 1.32405 15.3508C1.21108 15.2943 1.11284 15.2122 1.03713 15.1111C0.961414 15.01 0.910319 14.8926 0.8879 14.7683C0.865481 14.644 0.872354 14.5162 0.907974 14.395L4.97023 0.58334Z" fill="white"/>
</svg>
