<svg width="23" height="22" viewBox="0 0 23 22" fill="none" xmlns="http://www.w3.org/2000/svg">
<path d="M16.7231 21.8652H11.2431C10.8331 21.8652 10.4931 21.5252 10.4931 21.1152C10.4931 20.7052 10.8331 20.3652 11.2431 20.3652H16.7231C18.3831 20.3652 19.7331 19.0152 19.7331 17.3552V16.9152H18.5831C17.0731 16.9152 15.7931 15.7952 15.6731 14.3552C15.5931 13.5252 15.8931 12.7152 16.4931 12.1252C17.0031 11.6052 17.7031 11.3152 18.4531 11.3152H19.7231V10.6252C19.7231 8.96524 18.3731 7.61523 16.7131 7.61523H5.23314C3.57314 7.61523 2.22314 8.96524 2.22314 10.6252V12.3552C2.22314 12.7652 1.88314 13.1052 1.47314 13.1052C1.06314 13.1052 0.723145 12.7652 0.723145 12.3552V10.6252C0.723145 8.13524 2.74314 6.11523 5.23314 6.11523H16.7131C19.2031 6.11523 21.2231 8.13524 21.2231 10.6252V12.0652C21.2231 12.4752 20.8831 12.8152 20.4731 12.8152H18.4531C18.1031 12.8152 17.7831 12.9452 17.5531 13.1852C17.2631 13.4652 17.1231 13.8452 17.1631 14.2252C17.2231 14.8852 17.8531 15.4152 18.5731 15.4152H20.4731C20.8831 15.4152 21.2231 15.7552 21.2231 16.1652V17.3552C21.2331 19.8452 19.2131 21.8652 16.7231 21.8652Z" fill="white"/>
<path d="M1.48291 12.2752C1.07291 12.2752 0.73291 11.9352 0.73291 11.5252V6.9553C0.73291 5.4653 1.67291 4.11524 3.06291 3.58524L11.0029 0.58524C11.8229 0.27524 12.7329 0.385288 13.4429 0.885288C14.1629 1.38529 14.5829 2.19528 14.5829 3.06528V6.86527C14.5829 7.27527 14.2429 7.61527 13.8329 7.61527C13.4229 7.61527 13.0829 7.27527 13.0829 6.86527V3.06528C13.0829 2.68528 12.9029 2.33527 12.5829 2.11527C12.2629 1.89527 11.8829 1.84526 11.5229 1.98526L3.58292 4.98526C2.77292 5.29526 2.22292 6.0853 2.22292 6.9553V11.5252C2.23292 11.9452 1.89291 12.2752 1.48291 12.2752Z" fill="white"/>
<path d="M18.5829 16.9152C17.0729 16.9152 15.7929 15.7952 15.6729 14.3552C15.5929 13.5252 15.8929 12.7152 16.4929 12.1252C17.0029 11.6052 17.7029 11.3152 18.4529 11.3152H20.5329C21.5229 11.3452 22.2829 12.1251 22.2829 13.0851V15.1452C22.2829 16.1052 21.5229 16.8852 20.5629 16.9152H18.5829ZM20.5129 12.8152H18.4629C18.1129 12.8152 17.7929 12.9452 17.5629 13.1852C17.2729 13.4652 17.1329 13.8452 17.1729 14.2252C17.2329 14.8852 17.8629 15.4152 18.5829 15.4152H20.5429C20.6729 15.4152 20.7929 15.2952 20.7929 15.1452V13.0851C20.7929 12.9351 20.6729 12.8252 20.5129 12.8152Z" fill="white"/>
<path d="M12.9829 11.8652H5.98291C5.57291 11.8652 5.23291 11.5252 5.23291 11.1152C5.23291 10.7052 5.57291 10.3652 5.98291 10.3652H12.9829C13.3929 10.3652 13.7329 10.7052 13.7329 11.1152C13.7329 11.5252 13.3929 11.8652 12.9829 11.8652Z" fill="white"/>
<path d="M8.48291 18.8052C8.07291 18.8052 7.73291 18.4652 7.73291 18.0552V16.7752C7.73291 16.5552 7.55291 16.3652 7.32291 16.3652H1.98291C1.57291 16.3652 1.23291 16.0252 1.23291 15.6152C1.23291 15.2052 1.57291 14.8652 1.98291 14.8652H7.32291C8.37291 14.8652 9.23291 15.7252 9.23291 16.7752V18.0552C9.23291 18.4652 8.89291 18.8052 8.48291 18.8052Z" fill="white"/>
<path d="M3.20285 17.5852C3.01285 17.5852 2.82285 17.5152 2.67285 17.3652L1.45285 16.1452C1.16285 15.8552 1.16285 15.3752 1.45285 15.0852L2.67285 13.8652C2.96285 13.5752 3.44285 13.5752 3.73285 13.8652C4.02285 14.1552 4.02285 14.6352 3.73285 14.9252L3.04285 15.6152L3.73285 16.3052C4.02285 16.5952 4.02285 17.0752 3.73285 17.3652C3.58285 17.5152 3.39285 17.5852 3.20285 17.5852Z" fill="white"/>
</svg>
