<svg width="40" height="41" viewBox="0 0 40 41" fill="none" xmlns="http://www.w3.org/2000/svg">
<rect y="0.904785" width="40" height="40" rx="10" fill="#7860F4"/>
<path fill-rule="evenodd" clip-rule="evenodd" d="M28.5 10.9048H13.04C12.71 10.9048 12.39 11.0748 12.21 11.3548L10.67 13.6548C10.56 13.8148 10.5 14.0148 10.5 14.2048V26.9048C10.5 27.4548 10.95 27.9048 11.5 27.9048H13.5C14.05 27.9048 14.5 28.3548 14.5 28.9048V29.9048C14.5 30.4548 14.95 30.9048 15.5 30.9048H16.96C17.29 30.9048 17.61 30.7348 17.79 30.4548L19.2 28.3448C19.39 28.0648 19.7 27.8948 20.03 27.8948H24.08C24.35 27.8948 24.6 27.7848 24.79 27.6048L29.2 23.1948C29.39 23.0048 29.49 22.7548 29.49 22.4848V11.9048C29.5 11.3548 29.05 10.9048 28.5 10.9048ZM18.79 21.7648C18.79 22.0848 18.53 22.3348 18.22 22.3348H17.08C16.76 22.3348 16.51 22.0748 16.51 21.7648V16.0548C16.51 15.7348 16.77 15.4848 17.08 15.4848H18.22C18.54 15.4848 18.79 15.7448 18.79 16.0548V21.7648ZM24.5 21.7648C24.5 22.0848 24.24 22.3348 23.93 22.3348H22.79C22.47 22.3348 22.22 22.0748 22.22 21.7648V16.0548C22.22 15.7348 22.48 15.4848 22.79 15.4848H23.93C24.25 15.4848 24.5 15.7448 24.5 16.0548V21.7648Z" fill="white"/>
</svg>
