<svg width="41" height="41" viewBox="0 0 41 41" fill="none" xmlns="http://www.w3.org/2000/svg">
<rect x="0.832275" y="0.904785" width="40" height="40" rx="10" fill="#FF1515"/>
<path d="M25.8323 12.9048H15.8323C12.8323 12.9048 10.8323 14.9048 10.8323 17.9048V23.9048C10.8323 26.9048 12.8323 28.9048 15.8323 28.9048H25.8323C28.8323 28.9048 30.8323 26.9048 30.8323 23.9048V17.9048C30.8323 14.9048 28.8323 12.9048 25.8323 12.9048ZM22.7223 21.9348L20.2523 23.4148C19.2523 24.0148 18.4323 23.5548 18.4323 22.3848V19.4148C18.4323 18.2448 19.2523 17.7848 20.2523 18.3848L22.7223 19.8648C23.6723 20.4448 23.6723 21.3648 22.7223 21.9348Z" fill="white"/>
</svg>
